<?xml version="1.0" encoding="utf-8"?>
<!-- Generator: Adobe Illustrator 24.0.2, SVG Export Plug-In . SVG Version: 6.00 Build 0)  -->
<svg version="1.1" id="Слой_1" xmlns="http://www.w3.org/2000/svg" xmlns:xlink="http://www.w3.org/1999/xlink" x="0px" y="0px"
	 viewBox="0 0 369 43.3" style="enable-background:new 0 0 369 43.3;" xml:space="preserve">
<style type="text/css">
	.st0{fill:#F1852C;}
	.st1{fill:#434245;}
</style>
<polygon class="st0" points="81.8,10.5 81.8,3.2 61.9,3.2 61.9,39 81.8,39 81.8,31.7 70.5,31.7 70.5,24.6 81.2,24.6 81.2,17.4 
	70.5,17.4 70.5,10.5 "/>
<path class="st0" d="M108.3,20.3l-0.4,0v-0.7l0.2-0.1c2.5-1.3,3.8-3.6,3.8-7.1c0-6.1-3.4-9.1-10.4-9.1H88.4V39h14.2
	c3.8,0,12.8-1,12.8-9.8C115.3,23.9,113,20.9,108.3,20.3z M97.1,9.7h1.1c2.1,0,5.9,0,5.9,3.9s-4,3.9-5.5,3.9h-1.5V9.7z M105.6,31
	c-1.5,1.5-4.2,1.6-6.3,1.6c-0.1,0-0.2,0-0.3,0h-1.9v-8.7h1.4c0.2,0,0.5,0,0.8,0c2.2,0,4.8-0.1,6.3,1.4c0.7,0.7,1.1,1.7,1.1,3
	C106.6,29.4,106.2,30.3,105.6,31z"/>
<path class="st0" d="M135.1,3.2h-14.1V39h8.6V26.9h5.8c8.4,0,12.5-3.9,12.5-12C147.9,7.3,143.4,3.2,135.1,3.2z M131.7,20h-2v-9.9h2
	c3.5,0,7.2,0,7.2,5.1C138.9,20,135.1,20,131.7,20z"/>
<path class="st0" d="M170.8,2c-10.9,0-19.7,8.3-19.7,18.4c0,11.5,8.3,19.8,19.7,19.8s19.7-8.3,19.7-19.8C190.5,10.3,181.7,2,170.8,2
	z M170.8,31.8c-6,0-10.7-5-10.7-11.3c0-5.4,5-10.1,10.7-10.1s10.7,4.7,10.7,10.1C181.5,26.8,176.8,31.8,170.8,31.8z"/>
<path class="st1" d="M209.4,17.3h-5v-6.9h14.1V3.2h-22.8V39h14.2c4.8,0,12.8-1.4,12.8-10.7C222.6,18.6,216.3,17.3,209.4,17.3z
	 M212.8,31.1c-1.4,1.4-3.8,1.4-5.8,1.4c-0.1,0-0.2,0-0.3,0h-2.4v-8.7l2.3,0c2.2,0,4.7,0,6.1,1.4c0.7,0.7,1.1,1.7,1.1,3
	C213.9,29.4,213.5,30.4,212.8,31.1z"/>
<polygon class="st1" points="247.9,10.5 247.9,3.2 228,3.2 228,39 247.9,39 247.9,31.7 236.7,31.7 236.7,24.6 247.3,24.6 
	247.3,17.4 236.7,17.4 236.7,10.5 "/>
<polygon class="st1" points="276,3.2 251.7,3.2 251.7,10.5 259.6,10.5 259.6,39 268.2,39 268.2,10.5 276,10.5 "/>
<path class="st1" d="M298.1,2c-10.9,0-19.7,8.3-19.7,18.4c0,11.5,8.3,19.8,19.7,19.8c11.4,0,19.7-8.3,19.7-19.8
	C317.8,10.3,309,2,298.1,2z M298.1,31.8c-6,0-10.7-5-10.7-11.3c0-5.4,5-10.1,10.7-10.1s10.7,4.7,10.7,10.1
	C308.8,26.8,304.1,31.8,298.1,31.8z"/>
<polygon class="st1" points="354.8,39 354.8,3.2 346.1,3.2 346.1,17.3 331.7,17.3 331.7,3.2 323,3.2 323,39 331.7,39 331.7,24 
	346.1,24 346.1,39 "/>
<path class="st1" d="M33.5,2.7c-1.1,0-2.1,0.1-3.2,0.3c0.3,0,0.5,0,0.8,0c9.2,0,16.7,7.5,16.7,16.7c0,9.2-7.5,16.7-16.7,16.7
	c-9.2,0-16.7-7.5-16.7-16.7c0-0.2,0-0.4,0-0.7c-0.2,1-0.2,2-0.2,3c0,10.6,8.6,19.3,19.3,19.3S52.8,32.7,52.8,22S44.2,2.7,33.5,2.7z"
	/>
<path class="st0" d="M23.2,30.6c0,0,0.1,0.1,0.1,0.1c0,0,0.1,0,0.1,0c2.2,1.3,4.7,2.1,7.5,2.1c8.9,0,13.2-6.1,14.5-11.5
	c-2.4,4.9-7.8,8-13.3,7.8c-1.6-0.1-4.1-1.2-5.3-2.2c-3.1-2.5-4.1-6-4.1-9.2c0-7.6,7-8.8,8.4-8.8c4.3,0,8.7,5,6.5,10
	c-0.6,1.4-2.6,2.7-4.2,2.9c-0.4,0-0.8,0.1-1.2,0.1c-3,0-4.5-2.5-4.5-4.5c0-2.1,1.6-3.6,3.7-3.5c0,0,0,0,0,0
	c-0.7,0.3-1.3,0.9-1.5,1.7c-0.2,0.4-0.3,0.7-0.3,1.2c0,1.5,1.2,2.7,2.7,2.7c1.2,0,2.2-0.8,2.6-1.9c0.2-0.4,0.2-0.8,0.2-1.2
	c0-3.9-3.9-3.8-3.9-3.8s-5,0-5,5.1c0,4.7,4.8,6.3,6.6,6.3c0.2,0,0.5,0,0.7-0.1c0.9,0,1.8-0.2,2.7-0.6c6.3-2.8,6.4-11.1,1.1-15.5
	c-4.6-3.9-12.4-3.8-17.5,2.2c-3.6,4.3-4.4,9.8-1.8,14.8C19.1,27,20.9,29.1,23.2,30.6z"/>
</svg>
